<svg xmlns="http://www.w3.org/2000/svg" viewBox="0 0 420.69 402.61"><defs><style>.cls-1{fill:#f2741f;}.cls-1,.cls-2{fill-rule:evenodd;}.cls-2,.cls-3{fill:#18548f;}</style></defs><title>Asset 2</title><g id="Layer_2" data-name="Layer 2"><g id="Layer_1-2" data-name="Layer 1"><path class="cls-1" d="M165.6,141.88c4,3,5.47,5.68,5.47,10.74v21.56c0,4.24,2.64,7.65,7,8.1,1.63.16,3.26.54,3.26,2.52,0,1.83-1.46,2.52-3.1,2.52-7.32,0-12.19-6-12.15-13.08V152.62a7.68,7.68,0,0,0-7.15-8,4,4,0,0,1-2.38-.84,2.8,2.8,0,0,1,0-3.67,4.1,4.1,0,0,1,2.38-.84c4.38-.34,7.15-3.72,7.15-8V109.57c0-7.07,4.91-13.13,12.22-13.13,1.57,0,3,.77,3,2.52,0,2-1.61,2.42-3.26,2.58-4.27.44-7,3.86-7,8V131.2c0,5-1.46,7.71-5.47,10.68Zm93.23,0c-4,3-5.47,5.68-5.47,10.74v21.56c0,4.24-2.64,7.65-7,8.1-1.63.16-3.26.54-3.26,2.52,0,1.83,1.46,2.52,3.1,2.52,7.32,0,12.19-6,12.15-13.08V152.62a7.68,7.68,0,0,1,7.15-8,4,4,0,0,0,2.38-.84,2.8,2.8,0,0,0,0-3.67,4.1,4.1,0,0,0-2.38-.84c-4.38-.34-7.15-3.72-7.15-8V109.57c0-7.07-4.91-13.13-12.22-13.13-1.57,0-3,.77-3,2.52,0,2,1.61,2.42,3.26,2.58,4.27.44,7,3.86,7,8V131.2c0,5,1.46,7.71,5.47,10.68Zm-48.32,2.74V256.21l-7.51,1V144.62h-9.67c-6.19,0-6.19-7.51,0-7.51H203V108c0-8.93,7.17-15,15.54-16.59a41.4,41.4,0,0,1,13.75.12c1.24.2,3.49.58,4.38,1.51a3.66,3.66,0,0,1,1,2A3.82,3.82,0,0,1,236,98.68a5.89,5.89,0,0,1-4,.4,45,45,0,0,0-9.83-.6c-5.47.39-11.62,3.25-11.62,9.46v29.17h22.38c6.12,0,6.14,7.51,0,7.51Z"/><path class="cls-2" d="M76.3,125.28l28.11-.16.4,1.53-7.47,4.21L112.78,137l-.3,1.58-28.89-.07-.4-1.53,7.67-4.33L76,126.86l.29-1.58Zm28.92,94.19,22.61-16.69,1.23,1-3.56,7.8,16.09-4.16.69,1.46-23.39,17-1.23-1,3.65-8-15.4,4.09-.69-1.45Zm189.17-16.69L317,219.47l-.7,1.45-15.39-4.09,3.64,8-1.23,1-23.38-17,.69-1.46,16.09,4.16-3.56-7.8,1.23-1Zm23.42-77.66,28.1.16.3,1.58-14.85,5.77L339,137l-.4,1.53-28.89.07-.3-1.58,15.45-6.12-7.47-4.21.4-1.53ZM280,51.11,301.12,32.6l1.27,1L295.1,47.75l8.6-1.84.72,1.41L282.84,66.53l-1.27-1,7.5-14.82-8.39,1.8L280,51.11ZM222.34.27l.57,28.1-1.53.43-4.31-7.41-5.9,15.53-1.58-.28-.35-28.89,1.53-.42,4.43,7.6L220.75,0l1.59.27ZM121.1,32.6l21.14,18.51-.71,1.42-8.38-1.8,7.5,14.82-1.28,1L117.8,47.32l.71-1.41,8.61,1.84-7.29-14.16,1.27-1ZM173,261.19l8.18-1.1v-.42c0-2.45,0-4.6-.07-5.25a88.2,88.2,0,0,0-8.57-33.8A127.13,127.13,0,0,0,154.94,194a109.4,109.4,0,0,1-11-15.84c-11.2-19.63-14.11-39.94-10.69-58.26A79.3,79.3,0,0,1,255.91,68.94c2.22,1.5,4.3,3.06,6.21,4.65a79,79,0,0,1,27.69,49.47c2.83,19.63-1.56,41.31-15.48,61.89-2.1,3.09-4.35,6.1-6.76,9-7.15,8.59-13.72,18-18.5,28.76A87.59,87.59,0,0,0,241.62,252l8.32-1.12a79.69,79.69,0,0,1,6.61-24.78c4.44-10,10.6-18.79,17.31-26.87a120.59,120.59,0,0,0,7.27-9.64c15.16-22.39,19.91-46.1,16.8-67.63A87.24,87.24,0,0,0,267.36,67.3q-3.39-2.82-6.86-5.17a87.25,87.25,0,0,0-92.81-3.53,87.35,87.35,0,0,0-42.53,59.78c-3.75,20.12-.59,42.36,11.62,63.77a117.46,117.46,0,0,0,11.86,17,119.26,119.26,0,0,1,16.43,24.94,80,80,0,0,1,7.79,30.69c0,.69.06,2.67.08,4.9v1.48Zm-.38,47.45h77.35l-19.84,20a15.89,15.89,0,0,1-11.67,4.86H204.08a15.89,15.89,0,0,1-11.67-4.86l-19.84-20Zm77-26a4.1,4.1,0,1,1,1.09,8.12l-77.19,10.41a4.1,4.1,0,1,1-1.09-8.13l77.19-10.4Zm0-20.43a4.1,4.1,0,1,1,1.09,8.12l-77.19,10.41a4.1,4.1,0,1,1-1.09-8.13Z"/><path class="cls-3" d="M18.19,401.52H2.75a2.8,2.8,0,0,1-2-.67,2.38,2.38,0,0,1,0-3.41,2.88,2.88,0,0,1,2-.63H5.38V365.59H2.75a2.83,2.83,0,0,1-2-.64A2.23,2.23,0,0,1,0,363.23a2.33,2.33,0,0,1,.8-1.77,2.74,2.74,0,0,1,2-.58H33.17v10.53a3,3,0,0,1-.63,2.06,2.31,2.31,0,0,1-3.39,0,3,3,0,0,1-.62-2.06v-5.82H10v12.53h7.65v-2.18a3,3,0,0,1,.63-2.07,2.3,2.3,0,0,1,3.38,0,3,3,0,0,1,.63,2.07V385a3,3,0,0,1-.63,2.07,2.31,2.31,0,0,1-3.39,0,3,3,0,0,1-.62-2.07v-2.17H10v14h8.2a2.88,2.88,0,0,1,2,.63,2.38,2.38,0,0,1,0,3.41A2.82,2.82,0,0,1,18.19,401.52Zm51.91,0H39.62a2.8,2.8,0,0,1-2-.67,2.26,2.26,0,0,1-.71-1.69,2.3,2.3,0,0,1,.72-1.72,2.92,2.92,0,0,1,2-.63h2.63V365.59H39.62a2.88,2.88,0,0,1-2-.64,2.27,2.27,0,0,1-.72-1.72,2.3,2.3,0,0,1,.72-1.72,2.92,2.92,0,0,1,2-.63H68.7v10.53a3.09,3.09,0,0,1-.6,2,2.32,2.32,0,0,1-3.42,0,3,3,0,0,1-.59-2v-5.82H46.86v12.53h7.65v-2.18a3,3,0,0,1,.62-2.07,2.31,2.31,0,0,1,3.39,0,3,3,0,0,1,.62,2.07V385a3,3,0,0,1-.62,2.07,2.31,2.31,0,0,1-3.39,0,3,3,0,0,1-.62-2.07v-2.17H46.86v14H65.49v-7.24a3.06,3.06,0,0,1,.59-2.05,2.31,2.31,0,0,1,3.42,0,3.06,3.06,0,0,1,.6,2.05Zm23.77,1.09a15.86,15.86,0,0,1-10.21-3.3,2.58,2.58,0,0,1-.57,1.44,2.28,2.28,0,0,1-3.38,0,3,3,0,0,1-.63-2.06V391a3.12,3.12,0,0,1,.6-2.09,2.31,2.31,0,0,1,3.36-.06,2.86,2.86,0,0,1,.65,1.91,6.8,6.8,0,0,0,2.79,4.84,11.23,11.23,0,0,0,7.39,2.27,10.6,10.6,0,0,0,7.3-2.37,7.07,7.07,0,0,0,2.59-5.46,6,6,0,0,0-1-3.36,6.57,6.57,0,0,0-2.9-2.35,30.45,30.45,0,0,0-6.14-1.48c-4.64-.81-7.92-2-10-3.74a9.22,9.22,0,0,1-3.29-7.54,10.91,10.91,0,0,1,3.67-8.21A13.43,13.43,0,0,1,93.64,360a14.91,14.91,0,0,1,8.79,2.71,2.34,2.34,0,0,1,.49-1,2.3,2.3,0,0,1,3.41,0,3,3,0,0,1,.6,2.05v7.08a3,3,0,0,1-.6,2.05,2.3,2.3,0,0,1-3.35.06,2.81,2.81,0,0,1-.65-1.91,6.14,6.14,0,0,0-2.42-4.3,9.25,9.25,0,0,0-6.17-2,9.22,9.22,0,0,0-6.39,2.11,6.33,6.33,0,0,0-2.29,4.86,5.36,5.36,0,0,0,2.26,4.42,9.8,9.8,0,0,0,2.49,1.23,33.23,33.23,0,0,0,4.64,1,34.39,34.39,0,0,1,7.75,2,10.46,10.46,0,0,1,4.6,3.94,11,11,0,0,1,1.57,5.9,11.6,11.6,0,0,1-4,8.84C101.78,401.4,98.24,402.61,93.87,402.61Zm39,0a15.18,15.18,0,0,1-11.3-4.81,16.66,16.66,0,0,1,0-23.05,15.62,15.62,0,0,1,22.54,0,16.62,16.62,0,0,1,0,23.08A15.16,15.16,0,0,1,132.87,402.61Zm0-27.92a10.64,10.64,0,0,0-8,3.39,11.85,11.85,0,0,0,0,16.41,11.07,11.07,0,0,0,16,0,11.85,11.85,0,0,0,0-16.43A10.63,10.63,0,0,0,132.84,374.69Zm51,26.83H160.15a2.82,2.82,0,0,1-2-.67,2.38,2.38,0,0,1,0-3.41,2.91,2.91,0,0,1,2-.63h9.54v-34H163a2.94,2.94,0,0,1-2-.65,2.39,2.39,0,0,1,0-3.43,2.86,2.86,0,0,1,2.07-.66H174.3v38.74h9.54a2.93,2.93,0,0,1,2,.63,2.38,2.38,0,0,1,0,3.41A2.85,2.85,0,0,1,183.84,401.52Zm24.58,1.09a8.64,8.64,0,0,1-6.67-2.53,10.78,10.78,0,0,1-2.9-7.43v-17h-2.63a2.84,2.84,0,0,1-2-.67,2.4,2.4,0,0,1,0-3.41,2.88,2.88,0,0,1,2-.66h7.24v21.71a5.3,5.3,0,0,0,1.39,3.8,4.5,4.5,0,0,0,3.44,1.45c4,0,7.65-1.89,11-5.62v-16.6h-4a2.79,2.79,0,0,1-2-.67,2.4,2.4,0,0,1,0-3.41,2.84,2.84,0,0,1,2-.66h8.57v25.87h1.3a2.91,2.91,0,0,1,2,.63,2.31,2.31,0,0,1,.73,1.72,2.27,2.27,0,0,1-.72,1.69,2.79,2.79,0,0,1-2,.67h-5.91V398.6A17.3,17.3,0,0,1,208.42,402.61Zm43.84,0a12.36,12.36,0,0,1-8.07-2.5,8.53,8.53,0,0,1-3.12-6.9V375.68h-4a2.84,2.84,0,0,1-2-.67,2.4,2.4,0,0,1,0-3.41,2.88,2.88,0,0,1,2-.66h4V363.7a3,3,0,0,1,.63-2.07,2.3,2.3,0,0,1,3.38,0,3,3,0,0,1,.63,2.07v7.24h13.55a2.86,2.86,0,0,1,2,.66,2.41,2.41,0,0,1,0,3.42,2.84,2.84,0,0,1-2,.66H245.71v17.53a4.18,4.18,0,0,0,1.53,3.31,7.29,7.29,0,0,0,4.83,1.38,21.69,21.69,0,0,0,5.6-.81,18.56,18.56,0,0,0,4.66-1.8,2.24,2.24,0,0,1,3.15.16,2.34,2.34,0,0,1,.64,1.63,2.3,2.3,0,0,1-.69,1.6c-.8.86-2.5,1.69-5.34,2.61A25.41,25.41,0,0,1,252.26,402.61Zm49-1.09H277.6a2.82,2.82,0,0,1-2-.67,2.39,2.39,0,0,1,0-3.41,2.92,2.92,0,0,1,2-.63h9.54V375.68h-6.83a3,3,0,0,1-2.05-.65,2.29,2.29,0,0,1-.74-1.71,2.32,2.32,0,0,1,.72-1.72,2.83,2.83,0,0,1,2.07-.66h11.44v25.87h9.54a2.91,2.91,0,0,1,2,.63,2.38,2.38,0,0,1,0,3.41A2.86,2.86,0,0,1,301.29,401.52Zm-9.64-35.73h-5.88v-9.11h5.88Zm36.86,36.82a15.18,15.18,0,0,1-11.3-4.81,16.66,16.66,0,0,1,0-23.05,15.62,15.62,0,0,1,22.54,0,16.62,16.62,0,0,1,0,23.08A15.16,15.16,0,0,1,328.51,402.61Zm0-27.92a10.64,10.64,0,0,0-8,3.39,11.84,11.84,0,0,0,0,16.41,11.05,11.05,0,0,0,16,0,11.85,11.85,0,0,0,0-16.43A10.63,10.63,0,0,0,328.48,374.69Zm53.16,26.83h-7.16a2.85,2.85,0,0,1-2.07-.67,2.26,2.26,0,0,1-.71-1.69,2.3,2.3,0,0,1,.72-1.72,3,3,0,0,1,2.06-.63h1.26V380.74a5.71,5.71,0,0,0-1.78-4.29,6.54,6.54,0,0,0-4.86-1.76,8.18,8.18,0,0,0-4.1,1c-1.15.66-2.85,2.34-5.06,5v16.12H362a2.88,2.88,0,0,1,2,.63,2.38,2.38,0,0,1,0,3.41,2.82,2.82,0,0,1-2,.67h-8.72a2.8,2.8,0,0,1-2-.67,2.26,2.26,0,0,1-.71-1.69,2.3,2.3,0,0,1,.72-1.72,2.92,2.92,0,0,1,2-.63h2.05V375.68H354a2.82,2.82,0,0,1-2-.67,2.4,2.4,0,0,1,0-3.41,2.86,2.86,0,0,1,2-.66h5.9v2.86a16.51,16.51,0,0,1,3.67-2.63,12.3,12.3,0,0,1,5.52-1.23,12.52,12.52,0,0,1,6,1.48,10.27,10.27,0,0,1,3.59,3.62,9.77,9.77,0,0,1,1.6,5.23v16.54h1.29a2.87,2.87,0,0,1,2,.63,2.3,2.3,0,0,1,.72,1.72,2.26,2.26,0,0,1-.71,1.69A2.8,2.8,0,0,1,381.64,401.52Zm25.19,1.09a17.43,17.43,0,0,1-9.59-2.54s0,0,0,0a2.19,2.19,0,0,1-.81,1,2.28,2.28,0,0,1-3-.35,3,3,0,0,1-.62-2.07V393a3.06,3.06,0,0,1,.59-2.05,2.32,2.32,0,0,1,3.38-.06,2.49,2.49,0,0,1,.67,1.78,3.31,3.31,0,0,0,.55,2,7.23,7.23,0,0,0,3.14,2.31,14.52,14.52,0,0,0,5.59,1c3.24,0,5.66-.61,7.17-1.81s2.18-2.33,2.18-3.51a3.75,3.75,0,0,0-2.11-3.31,18.46,18.46,0,0,0-7.2-1.95,30.15,30.15,0,0,1-7.4-1.45,8.31,8.31,0,0,1-3.81-2.92A7.37,7.37,0,0,1,398,372.19a15.92,15.92,0,0,1,8.56-2.25,15.66,15.66,0,0,1,8.39,2.15,2.21,2.21,0,0,1,.28-.4,2.31,2.31,0,0,1,3.39,0,3.06,3.06,0,0,1,.63,2.1v4.76a3,3,0,0,1-.63,2.07,2.33,2.33,0,0,1-3.3.11,2.72,2.72,0,0,1-.71-1.8,3.5,3.5,0,0,0-1.58-2.57,10.78,10.78,0,0,0-6.34-1.67,10.48,10.48,0,0,0-6.39,1.69,3.07,3.07,0,0,0-1.49,2.4,2.92,2.92,0,0,0,1.75,2.48c.62.38,2.06.9,5.41,1.29a39,39,0,0,1,8,1.48,10.82,10.82,0,0,1,5.05,3.54,8.3,8.3,0,0,1,1.7,5,9.06,9.06,0,0,1-3.62,7C414.71,401.61,411.26,402.61,406.83,402.61Z"/></g></g></svg>


